<?xml version="1.0" encoding="UTF-8"?>
<svg width="22px" height="22px" viewBox="0 0 22 22" version="1.1" xmlns="http://www.w3.org/2000/svg" xmlns:xlink="http://www.w3.org/1999/xlink">
    <!-- Generator: Sketch 50.2 (55047) - http://www.bohemiancoding.com/sketch -->
    <title> </title>
    <desc>Created with Sketch.</desc>
    <defs></defs>
    <g id="Page-1" stroke="none" stroke-width="1" fill="none" fill-rule="evenodd">
        <g id="预览话题详情" transform="translate(-334.000000, -768.000000)" fill="#202020">
            <g id="板块一" transform="translate(214.000000, 237.000000)">
                <g id="Group-4" transform="translate(61.000000, 334.000000)">
                    <g id="Page-1" transform="translate(59.000000, 197.000000)">
                        <path d="M15.6439088,9.13195118 C15.0909182,9.13195118 14.6427229,9.58577591 14.6427229,10.1448291 C14.6427229,10.7047483 15.0909182,11.15814 15.6439088,11.15814 C16.1968994,11.15814 16.6450946,10.7047483 16.6450946,10.1448291 C16.6450946,9.58577591 16.1968994,9.13195118 15.6439088,9.13195118 M6.77830418,9.13195118 C6.22531355,9.13195118 5.77711833,9.58577591 5.77711833,10.1448291 C5.77711833,10.7047483 6.22531355,11.15814 6.77830418,11.15814 C7.3312948,11.15814 7.77949003,10.7047483 7.77949003,10.1448291 C7.77949003,9.58577591 7.3312948,9.13195118 6.77830418,9.13195118 M11.211323,9.13195118 C10.6583324,9.13195118 10.2097041,9.58577591 10.2097041,10.1448291 C10.2097041,10.7047483 10.6583324,11.15814 11.211323,11.15814 C11.7643136,11.15814 12.2125089,10.7047483 12.2125089,10.1448291 C12.2125089,9.58577591 11.7643136,9.13195118 11.211323,9.13195118 M11.177546,17.0331783 C10.2356864,17.0331783 9.33236738,16.8902754 8.49487023,16.6282869 L7.81673137,17.2003313 C7.82972253,17.2050947 7.8427137,17.2098581 7.85570487,17.2146215 L6.67091054,18.0655429 L6.65878545,16.5035717 L6.65878545,15.8037809 C4.6100786,14.5644237 3.26982332,12.5053239 3.26982332,10.1747088 C3.26982332,6.3864848 6.81034905,3.31580623 11.177546,3.31580623 C15.5451759,3.31580623 19.0857017,6.3864848 19.0857017,10.1747088 C19.0857017,13.9624997 15.5451759,17.0331783 11.177546,17.0331783 M11.177546,2.55365783 C6.39463175,2.55365783 2.51676874,5.96557102 2.51676874,10.1747088 C2.51676874,12.6382668 3.84576501,14.8290104 5.90746303,16.2220965 L5.90573087,19.4391422 L8.73693895,17.4883021 C9.5107794,17.687933 10.3300889,17.7953266 11.177546,17.7953266 C15.9608932,17.7953266 19.8387562,14.3834135 19.8387562,10.1747088 C19.8387562,5.96557102 15.9608932,2.55365783 11.177546,2.55365783" id="Fill-1"></path>
                    </g>
                </g>
            </g>
        </g>
    </g>
</svg>