<?xml version="1.0" encoding="UTF-8"?>
<svg width="18px" height="18px" viewBox="0 0 18 18" version="1.1" xmlns="http://www.w3.org/2000/svg" xmlns:xlink="http://www.w3.org/1999/xlink">
    <!-- Generator: Sketch 48.2 (47327) - http://www.bohemiancoding.com/sketch -->
    <title>Page 1</title>
    <desc>Created with Sketch.</desc>
    <defs></defs>
    <g id="热帖列表" stroke="none" stroke-width="1" fill="none" fill-rule="evenodd" transform="translate(-1332.000000, -180.000000)">
        <g id="Group-9" transform="translate(0.000000, -16.000000)" fill="#96ABB5">
            <g id="Group-13" transform="translate(788.000000, 194.000000)">
                <g id="Group-10-Copy">
                    <g id="Group-15" transform="translate(349.000000, 0.000000)">
                        <path d="M212.704788,11.5279156 L210.153298,14.0794053 C210.043774,14.1889299 209.865076,14.1889299 209.755551,14.0794053 L209.357084,13.6809377 C209.247559,13.5714131 209.247559,13.3934357 209.357084,13.2831906 L211.079934,11.5625023 L204.562502,11.5625023 L204.562502,18.0792132 L206.284632,16.3578042 C206.394156,16.2475591 206.572134,16.2475591 206.682379,16.3578042 L207.080126,16.7555513 C207.18965,16.8657964 207.18965,17.0437738 207.080126,17.1532983 L204.528636,19.7047881 C204.522872,19.6918181 204.218076,19.9994956 203.999748,19.9994956 C203.78214,19.9994956 203.494638,19.6918181 203.47158,19.7047881 L200.92009,17.1525778 C200.810566,17.0430532 200.810566,16.8650758 200.92009,16.7555513 L201.318558,16.3570837 C201.428082,16.2475591 201.60678,16.2475591 201.716305,16.3570837 L203.437714,18.0792132 L203.437714,11.5625023 L196.920282,11.5625023 L198.642412,13.2839112 C198.751936,13.3934357 198.751936,13.5721337 198.642412,13.6816582 L198.243944,14.0801259 C198.13442,14.1896504 197.955722,14.1896504 197.846197,14.0801259 L195.294708,11.5286361 C195.307678,11.5228717 195,11.2180764 195,10.9997478 C195,10.7814193 195.307678,10.4946379 195.295428,10.4715801 L197.846918,7.92009031 C197.956442,7.81056576 198.13514,7.81056576 198.244665,7.92009031 L198.642412,8.31855793 C198.752657,8.42808248 198.752657,8.60605988 198.642412,8.71630499 L196.920282,10.4369934 L203.437714,10.4369934 L203.437714,3.92028246 L201.715584,5.64169139 C201.60606,5.75193649 201.427362,5.75193649 201.317837,5.64169139 L200.92009,5.24394433 C200.809845,5.13369922 200.809845,4.95572182 200.92009,4.84619726 L203.47158,2.29470751 C203.476624,2.30767753 203.78214,2 203.999748,2 C204.218076,2 204.504858,2.30767753 204.527916,2.29542807 L207.080126,4.84691782 C207.18965,4.95644237 207.18965,5.13441977 207.080126,5.24394433 L206.681658,5.64241194 C206.572134,5.75193649 206.393436,5.75193649 206.283911,5.64241194 L204.562502,3.92028246 L204.562502,10.4369934 L211.079934,10.4369934 L209.357804,8.71558443 C209.24828,8.60605988 209.24828,8.42736192 209.357804,8.31783737 L209.756272,7.91936975 C209.865796,7.8098452 210.043774,7.8098452 210.154019,7.91936975 L212.705509,10.4708595 C212.692539,10.476624 213.000216,10.7814193 213.000216,10.9997478 C213.000216,11.2180764 212.692539,11.5048578 212.704788,11.5279156" id="Page-1"></path>
                    </g>
                </g>
            </g>
        </g>
    </g>
</svg>