<?xml version="1.0" encoding="UTF-8"?>
<svg width="22px" height="22px" viewBox="0 0 22 22" version="1.1" xmlns="http://www.w3.org/2000/svg" xmlns:xlink="http://www.w3.org/1999/xlink">
    <!-- Generator: Sketch 50.2 (55047) - http://www.bohemiancoding.com/sketch -->
    <title>Group 4</title>
    <desc>Created with Sketch.</desc>
    <defs>
        <polygon id="path-1" points="8.71794872e-05 0.153 16.6961795 0.153 16.6961795 6 8.71794872e-05 6"></polygon>
        <polygon id="path-3" points="0.28209008 0.216956522 13.8544191 0.216956522 13.8544191 9.58504348 0.28209008 9.58504348"></polygon>
    </defs>
    <g id="Page-1" stroke="none" stroke-width="1" fill="none" fill-rule="evenodd">
        <g id="预览话题详情" transform="translate(-938.000000, -767.000000)">
            <g id="板块一" transform="translate(214.000000, 237.000000)">
                <g id="Group-4" transform="translate(61.000000, 334.000000)">
                    <g id="Page-1" transform="translate(666.000000, 199.000000)">
                        <g id="Group-3" transform="translate(0.000000, 10.000000)">
                            <mask id="mask-2" fill="white">
                                <use xlink:href="#path-1"></use>
                            </mask>
                            <g id="Clip-2"></g>
                            <path d="M14.7260103,6 L1.96947179,6 C0.883651282,6 8.71794872e-05,5.13128571 8.71794872e-05,4.06371429 L8.71794872e-05,0.538714286 C8.71794872e-05,0.325714286 0.175753846,0.153 0.392394872,0.153 C0.609035897,0.153 0.785138462,0.325714286 0.785138462,0.538714286 L0.785138462,4.06371429 C0.785138462,4.70614286 1.31606154,5.22857143 1.96947179,5.22857143 L14.7260103,5.22857143 C15.3794205,5.22857143 15.9112154,4.70614286 15.9112154,4.06371429 L15.9112154,0.538714286 C15.9112154,0.325714286 16.0868821,0.153 16.3035231,0.153 C16.5201641,0.153 16.6962667,0.325714286 16.6962667,0.538714286 L16.6962667,4.06371429 C16.6962667,5.13128571 15.8122667,6 14.7260103,6" id="Fill-1" fill="#231916" mask="url(#mask-2)"></path>
                        </g>
                        <g id="Group-6" transform="translate(3.000000, 0.000000)">
                            <mask id="mask-4" fill="white">
                                <use xlink:href="#path-3"></use>
                            </mask>
                            <g id="Clip-5"></g>
                            <path d="M6.38553548,5.66765217 C7.29282581,5.66765217 8.03437419,5.78634783 8.4439871,5.87026087 C8.80889032,5.94504348 9.06947097,6.26156522 9.06314839,6.62330435 L9.03966452,7.97373913 L13.0066323,4.43504348 C13.0359871,4.40895652 13.0414065,4.37852174 13.0414065,4.35721739 C13.0409548,4.33591304 13.0346323,4.30591304 13.0039226,4.28113043 L9.06856774,1.032 L9.06856774,2.11765217 C9.06856774,2.53547826 8.72579355,2.87069565 8.28818065,2.88156522 C5.7699871,2.94156522 3.86327742,3.61156522 2.6199871,4.87373913 C1.7939871,5.71243478 1.41508387,6.67026087 1.2412129,7.39113043 C2.88869677,6.00113043 4.86766452,5.66765217 6.38553548,5.66765217 Z M0.319019355,9.58504348 L0.282890323,8.52678261 C0.279729032,8.43156522 0.223729032,6.17765217 2.02024516,4.34504348 C3.41708387,2.92069565 5.51934194,2.1646087 8.26785806,2.09895652 L8.25566452,0.97373913 C8.25566452,0.675043478 8.43089032,0.412 8.71269677,0.287217391 C8.99495484,0.162 9.31650323,0.205478261 9.55224516,0.40026087 L13.5332129,3.68678261 C13.7332774,3.85156522 13.8497935,4.09156522 13.8543097,4.34504348 C13.8583742,4.59852174 13.7490839,4.842 13.5544387,5.01286957 L9.54727742,8.53417391 C9.31469677,8.73895652 8.97869677,8.79026087 8.69147097,8.66591304 C8.40424516,8.54069565 8.22134194,8.26417391 8.2272129,7.96026087 L8.25069677,6.61026087 C7.1699871,6.41069565 3.38501935,5.89634783 1.00682581,8.75808696 L0.319019355,9.58504348 Z" id="Fill-4" fill="#231916" mask="url(#mask-4)"></path>
                        </g>
                    </g>
                </g>
            </g>
        </g>
    </g>
</svg>