<?xml version="1.0" encoding="UTF-8"?>
<svg width="17px" height="18px" viewBox="0 0 17 18" version="1.1" xmlns="http://www.w3.org/2000/svg" xmlns:xlink="http://www.w3.org/1999/xlink">
    <!-- Generator: Sketch 48.2 (47327) - http://www.bohemiancoding.com/sketch -->
    <title>Page 1</title>
    <desc>Created with Sketch.</desc>
    <defs>
        <polygon id="path-1" points="16.6321818 17.6604353 16.6321818 0 0.000103030303 0 0.000103030303 17.6604353"></polygon>
    </defs>
    <g id="首页资源池" stroke="none" stroke-width="1" fill="none" fill-rule="evenodd" transform="translate(-1292.000000, -89.000000)">
        <g id="Group-9" transform="translate(0.000000, -16.000000)">
            <g id="Group-8" transform="translate(1292.000000, 96.000000)">
                <g id="Page-1" transform="translate(0.000000, 9.000000)">
                    <mask id="mask-2" fill="white">
                        <use xlink:href="#path-1"></use>
                    </mask>
                    <g id="Clip-2"></g>
                    <path d="M14.4145576,2.75908235 L2.21731515,2.75908235 C1.6058303,2.75908235 1.10922424,3.25461176 1.10922424,3.86290588 L15.5226485,3.86290588 C15.5226485,3.25461176 15.0250121,2.75908235 14.4145576,2.75908235 L14.4145576,2.75908235 Z M9.97961818,1.10361176 L6.6527697,1.10361176 C6.24425455,1.10361176 5.89034545,1.32755294 5.69870909,1.65525882 L10.9336788,1.65525882 C10.7415273,1.32755294 10.3881333,1.10361176 9.97961818,1.10361176 L9.97961818,1.10361176 Z M3.88073939,16.5571412 L12.7511333,16.5571412 C13.3626182,16.5571412 13.8592242,16.0616118 13.8592242,15.4533176 L13.8592242,4.9662 L2.77264848,4.9662 L2.69589091,15.4533176 C2.69589091,16.0616118 3.2708,16.5571412 3.88073939,16.5571412 L3.88073939,16.5571412 Z M16.0769515,4.41455294 L16.0769515,4.9662 L14.9673152,4.9662 L14.9673152,15.4533176 C14.9673152,16.6704353 13.9730727,17.6604353 12.750103,17.6604353 L3.88073939,17.6604353 C2.6577697,17.6604353 1.66352727,16.6704353 1.66352727,15.4533176 L1.66352727,4.9662 L0.555436364,4.9662 L0.555436364,4.41455294 L0.000103030303,4.41455294 L0.000103030303,3.86290588 C0.000103030303,2.64578824 0.994345455,1.65525882 2.21731515,1.65525882 L4.51334545,1.65525882 C4.76164848,0.704964706 5.62298182,-0.000211764706 6.6527697,-0.000211764706 L9.97961818,-0.000211764706 C11.0094061,-0.000211764706 11.8702242,0.704964706 12.1185273,1.65525882 L14.4145576,1.65525882 C15.6375273,1.65525882 16.6322848,2.64578824 16.6322848,3.86290588 L16.6322848,4.41455294 L16.0769515,4.41455294 Z M11.641497,14.3500235 C11.3344667,14.3500235 11.0877091,14.1022588 11.0877091,13.7978471 L11.0877091,7.72655294 C11.0877091,7.42108235 11.3360121,7.17490588 11.641497,7.17490588 C11.9485273,7.17490588 12.1958,7.42267059 12.1958,7.72655294 L12.1958,13.7967882 C12.1968303,14.1022588 11.9485273,14.3500235 11.641497,14.3500235 L11.641497,14.3500235 Z M8.31619394,14.3500235 C8.00916364,14.3500235 7.76189091,14.1022588 7.76189091,13.7978471 L7.76189091,7.72655294 C7.76189091,7.42108235 8.01019394,7.17490588 8.31619394,7.17490588 C8.62322424,7.17490588 8.86998182,7.42267059 8.86998182,7.72655294 L8.86998182,13.7967882 C8.86998182,14.1022588 8.62322424,14.3500235 8.31619394,14.3500235 L8.31619394,14.3500235 Z M4.99037576,14.3500235 C4.68334545,14.3500235 4.43607273,14.1022588 4.43607273,13.7978471 L4.43607273,7.72655294 C4.43607273,7.42108235 4.68489091,7.17490588 4.99037576,7.17490588 C5.29740606,7.17490588 5.54467879,7.42267059 5.54467879,7.72655294 L5.54467879,13.7967882 C5.54467879,14.1022588 5.29637576,14.3500235 4.99037576,14.3500235 L4.99037576,14.3500235 Z" id="Fill-1" fill="#8EA6B0" mask="url(#mask-2)"></path>
                </g>
            </g>
        </g>
    </g>
</svg>