<?xml version="1.0" encoding="UTF-8"?>
<svg width="17px" height="17px" viewBox="0 0 17 17" version="1.1" xmlns="http://www.w3.org/2000/svg" xmlns:xlink="http://www.w3.org/1999/xlink">
    <!-- Generator: Sketch 48.2 (47327) - http://www.bohemiancoding.com/sketch -->
    <title>Fill 1</title>
    <desc>Created with Sketch.</desc>
    <defs></defs>
    <g id="新建视频文章-" stroke="none" stroke-width="1" fill="none" fill-rule="evenodd" transform="translate(-24.000000, -142.000000)">
        <g id="Group-9" transform="translate(0.000000, -16.000000)" fill="#FD782D">
            <path d="M26.4939711,167.88421 L32.4151177,168.289267 L32.4196239,168.289267 C32.5653244,168.307792 32.6975063,168.386901 32.7831241,168.504563 L35.7006382,173.268117 L39.7231726,159.636362 M35.959995,175 C35.795769,175 35.6360493,174.921392 35.5364122,174.784704 L35.5339088,174.780198 L32.0886686,169.285137 C32.0861651,169.282634 32.0836617,169.280631 32.0816589,169.280631 L25.058496,168.766423 L25.0514864,168.766423 C24.8361902,168.738886 24.6579449,168.578665 24.6068747,168.365872 C24.5558044,168.157586 24.6414222,167.93528 24.8176647,167.812611 L40.153765,158.093739 L40.1557678,158.091737 C40.2949593,157.999109 40.4686983,157.973574 40.6239119,158.02915 C40.8807653,158.123781 41.0174534,158.378631 40.9643803,158.630979 L36.471699,174.583427 C36.4281391,174.784704 36.2704221,174.944424 36.0691452,174.988484 C36.0320942,174.995494 35.9950432,175 35.959995,175" id="Fill-1"></path>
        </g>
    </g>
</svg>