<?xml version="1.0" encoding="UTF-8"?>
<svg width="16px" height="15px" viewBox="0 0 16 15" version="1.1" xmlns="http://www.w3.org/2000/svg" xmlns:xlink="http://www.w3.org/1999/xlink">
    <!-- Generator: Sketch 48.2 (47327) - http://www.bohemiancoding.com/sketch -->
    <title>Page 1</title>
    <desc>Created with Sketch.</desc>
    <defs>
        <polygon id="path-1" points="0 14.6849516 15.6906667 14.6849516 15.6906667 -4.83870967e-05 0 -4.83870967e-05"></polygon>
    </defs>
    <g id="首页抓取池" stroke="none" stroke-width="1" fill="none" fill-rule="evenodd" transform="translate(-26.000000, -266.000000)">
        <g id="Group-9" transform="translate(0.000000, -16.000000)">
            <g id="Page-1" transform="translate(26.000000, 278.000000)">
                <path d="M14.535903,14.8976935 L7.05420606,14.8976935 C6.91166061,14.8976935 6.76911515,14.9688226 6.69784242,15.0399516 L4.34632727,16.8888226 L4.34632727,15.4667258 C4.34632727,15.1822097 4.06123636,14.8976935 3.7766303,14.8976935 L1.14002424,14.8976935 L1.14002424,5.15543548 L14.6071758,5.15543548 L14.6071758,14.8976935 L14.535903,14.8976935 Z M15.1060848,4.01785484 L0.569842424,4.01785484 C0.285236364,4.01785484 0.000145454545,4.23124194 0.000145454545,4.58640323 L0.000145454545,15.4667258 C0.000145454545,15.7512419 0.285236364,16.0352742 0.569842424,16.0352742 L3.27772121,16.0352742 L3.27772121,18.0975323 C3.27772121,18.3109194 3.42026667,18.5243065 3.56281212,18.5954355 C3.63408485,18.6665645 3.70535758,18.6665645 3.7766303,18.6665645 C3.91917576,18.6665645 4.06123636,18.5954355 4.13299394,18.5243065 L7.19675152,16.0352742 L15.1060848,16.0352742 C15.3911758,16.0352742 15.6757818,15.7512419 15.6757818,15.4667258 L15.6757818,4.58640323 C15.6757818,4.23124194 15.3911758,4.01785484 15.1060848,4.01785484 Z" id="Fill-1" fill="#96ABB5"></path>
                <mask id="mask-2" fill="white">
                    <use xlink:href="#path-1"></use>
                </mask>
                <g id="Clip-4"></g>
                <path d="M3.49139394,12.1241452 L8.40824242,12.1241452 L8.40824242,10.9865645 L3.49139394,10.9865645 L3.49139394,12.1241452 Z M3.49139394,8.99543548 L12.1842424,8.99543548 L12.1842424,7.85785484 L3.49139394,7.85785484 L3.49139394,8.99543548 Z" id="Fill-3" fill="#96ABB5" mask="url(#mask-2)"></path>
            </g>
        </g>
    </g>
</svg>