<?xml version="1.0" encoding="UTF-8"?>
<svg width="16px" height="15px" viewBox="0 0 16 15" version="1.1" xmlns="http://www.w3.org/2000/svg" xmlns:xlink="http://www.w3.org/1999/xlink">
    <!-- Generator: Sketch 48.2 (47327) - http://www.bohemiancoding.com/sketch -->
    <title>Page 1</title>
    <desc>Created with Sketch.</desc>
    <defs>
        <polygon id="path-1" points="0 14.6849516 15.6906667 14.6849516 15.6906667 -4.83870972e-05 0 -4.83870972e-05"></polygon>
    </defs>
    <g id="评论管理" stroke="none" stroke-width="1" fill="none" fill-rule="evenodd" transform="translate(-26.000000, -263.000000)">
        <g id="Group-9" transform="translate(0.000000, -16.000000)">
            <g id="Page-1" transform="translate(26.000000, 279.000000)">
                <path d="M14.535903,10.8976935 L7.05420606,10.8976935 C6.91166061,10.8976935 6.76911515,10.9688226 6.69784242,11.0399516 L4.34632727,12.8888226 L4.34632727,11.4667258 C4.34632727,11.1822097 4.06123636,10.8976935 3.7766303,10.8976935 L1.14002424,10.8976935 L1.14002424,1.15543548 L14.6071758,1.15543548 L14.6071758,10.8976935 L14.535903,10.8976935 Z M15.1060848,0.0178548387 L0.569842424,0.0178548387 C0.285236364,0.0178548387 0.000145454545,0.231241935 0.000145454545,0.586403226 L0.000145454545,11.4667258 C0.000145454545,11.7512419 0.285236364,12.0352742 0.569842424,12.0352742 L3.27772121,12.0352742 L3.27772121,14.0975323 C3.27772121,14.3109194 3.42026667,14.5243065 3.56281212,14.5954355 C3.63408485,14.6665645 3.70535758,14.6665645 3.7766303,14.6665645 C3.91917576,14.6665645 4.06123636,14.5954355 4.13299394,14.5243065 L7.19675152,12.0352742 L15.1060848,12.0352742 C15.3911758,12.0352742 15.6757818,11.7512419 15.6757818,11.4667258 L15.6757818,0.586403226 C15.6757818,0.231241935 15.3911758,0.0178548387 15.1060848,0.0178548387 Z" id="Fill-1" fill="#FD782D"></path>
                <mask id="mask-2" fill="white">
                    <use xlink:href="#path-1"></use>
                </mask>
                <g id="Clip-4"></g>
                <path d="M3.49139394,8.12414516 L8.40824242,8.12414516 L8.40824242,6.98656452 L3.49139394,6.98656452 L3.49139394,8.12414516 Z M3.49139394,4.99543548 L12.1842424,4.99543548 L12.1842424,3.85785484 L3.49139394,3.85785484 L3.49139394,4.99543548 Z" id="Fill-3" fill="#FD782D" mask="url(#mask-2)"></path>
            </g>
        </g>
    </g>
</svg>