<?xml version="1.0" encoding="UTF-8"?>
<svg width="17px" height="15px" viewBox="0 0 17 15" version="1.1" xmlns="http://www.w3.org/2000/svg" xmlns:xlink="http://www.w3.org/1999/xlink">
    <!-- Generator: Sketch 48.2 (47327) - http://www.bohemiancoding.com/sketch -->
    <title>Page 1</title>
    <desc>Created with Sketch.</desc>
    <defs>
        <polygon id="path-1" points="6.58613121 0.417944603 0.15631483 0.417944603 0.15631483 8.57457334 6.58613121 8.57457334 6.58613121 0.417944603"></polygon>
    </defs>
    <g id="首页抓取池" stroke="none" stroke-width="1" fill="none" fill-rule="evenodd" transform="translate(-26.000000, -200.000000)">
        <g id="Group-9" transform="translate(0.000000, -16.000000)">
            <g id="Page-1" transform="translate(26.000000, 216.000000)">
                <g id="Group-3" transform="translate(4.978179, 0.195406)">
                    <mask id="mask-2" fill="white">
                        <use xlink:href="#path-1"></use>
                    </mask>
                    <g id="Clip-2"></g>
                    <path d="M0.899805908,3.93444402 L2.93588124,1.90187158 L2.93588124,8.13973204 C2.93588124,8.37976444 3.13052805,8.57457334 3.37097411,8.57457334 C3.61191799,8.57457334 3.8065648,8.37976444 3.8065648,8.13973204 L3.8065648,1.90187158 L5.84264013,3.93444402 C6.01289386,4.10440484 6.28818718,4.10440484 6.45844091,3.93444402 C6.62869464,3.76448319 6.62869464,3.48916653 6.45844091,3.31970267 L3.67912341,0.545166741 C3.50886968,0.375205916 3.23307854,0.375205916 3.06332263,0.545166741 L0.284005129,3.31970267 C0.113751397,3.48916653 0.113751397,3.76448319 0.284005129,3.93444402 C0.453761043,4.10440484 0.729552176,4.10440484 0.899805908,3.93444402" id="Fill-1" fill="#96ABB5" mask="url(#mask-2)"></path>
                </g>
                <g id="Group-6" transform="translate(0.000000, 5.741198)" fill="#96ABB5">
                    <path d="M15.248661,0 L12.0621284,0 C11.7873329,0 11.5643105,0.222638742 11.5643105,0.496961478 C11.5643105,0.771284213 11.7873329,0.993922955 12.0621284,0.993922955 L15.2481632,0.993922955 C15.4995612,0.993922955 15.7031688,1.1971802 15.7031688,1.44814575 L15.7031688,7.74116894 C15.7031688,7.99213448 15.4995612,8.19539173 15.2481632,8.19539173 L1.45064145,8.19539173 C1.19924339,8.19539173 0.995635859,7.99213448 0.995635859,7.74116894 L0.995635859,1.44764878 C0.995635859,1.1971802 1.19924339,0.993922955 1.45014363,0.993922955 L4.6366762,0.993922955 C4.91196951,0.993922955 5.13449413,0.771284213 5.13449413,0.496961478 C5.13449413,0.222638742 4.91196951,0 4.6366762,0 L1.45064145,0 C0.649652398,0 0,0.648534728 0,1.44814575 L0,7.74116894 C0,8.54127692 0.649652398,9.18931468 1.45064145,9.18931468 L15.2481632,9.18931468 C16.0491522,9.18931468 16.6988046,8.54127692 16.6988046,7.74116894 L16.6988046,1.44764878 C16.6988046,0.648037767 16.04965,0 15.248661,0" id="Fill-4"></path>
                </g>
            </g>
        </g>
    </g>
</svg>