<?xml version="1.0" encoding="UTF-8"?>
<svg width="178px" height="40px" viewBox="0 0 178 40" version="1.1" xmlns="http://www.w3.org/2000/svg" xmlns:xlink="http://www.w3.org/1999/xlink">
    <!-- Generator: Sketch 48.2 (47327) - http://www.bohemiancoding.com/sketch -->
    <title>Page 1</title>
    <desc>Created with Sketch.</desc>
    <defs>
        <polygon id="path-1" points="9.29355963 9.19832593 9.29355963 0.0131407407 0.0892672227 0.0131407407 0.0892672227 9.19832593 9.29355963 9.19832593"></polygon>
    </defs>
    <g id="抓取池预览" stroke="none" stroke-width="1" fill="none" fill-rule="evenodd" transform="translate(-29.000000, -8.000000)">
        <g id="Group-9" transform="translate(0.000000, -16.000000)">
            <g id="Page-1" transform="translate(29.000000, 24.000000)">
                <path d="M93.428162,16.4134222 C92.4752162,16.4134222 91.7893446,16.1912 91.1836399,15.5777185 L91.8249743,14.9467556 C92.2880118,15.4089778 92.7957349,15.5512 93.4459768,15.5512 C94.2743671,15.5512 94.755368,15.1956444 94.755368,14.5824593 C94.755368,14.3067556 94.6752012,14.0757926 94.5059601,13.9245333 C94.3456265,13.7735704 94.1854414,13.7113481 93.8111812,13.6578667 L93.0629576,13.5513481 C92.5464756,13.4800889 92.1367341,13.3023111 91.8604555,13.0446815 C91.5488442,12.7512 91.397418,12.3513481 91.397418,11.8357926 C91.397418,10.7335704 92.1990861,9.97816296 93.5173847,9.97816296 C94.3545339,9.97816296 94.9424239,10.1913481 95.4856282,10.6980148 L94.8711645,11.3024593 C94.4792379,10.9291259 94.0251078,10.8135704 93.4905139,10.8135704 C92.7424389,10.8135704 92.3326974,11.240237 92.3326974,11.800237 C92.3326974,12.0313481 92.4039568,12.2357926 92.5730494,12.3867556 C92.733383,12.5289778 92.9918467,12.6357926 93.2856432,12.680237 L94.0071445,12.7869037 C94.5950344,12.8757926 94.924609,13.0178667 95.1918317,13.2578667 C95.5392212,13.5600889 95.7083138,14.0135704 95.7083138,14.5556444 C95.7083138,15.7200889 94.755368,16.4134222 93.428162,16.4134222" id="Fill-1" fill="#1E1412"></path>
                <path d="M98.9899271,16.4134222 C97.6984992,16.4134222 96.7186827,15.5334222 96.7186827,14.2267556 L96.7186827,10.0314963 L97.6806844,10.0314963 L97.6806844,14.1823111 C97.6806844,15.0267556 98.1971665,15.5512 98.9899271,15.5512 C99.7826877,15.5512 100.308226,15.0267556 100.308226,14.1823111 L100.308226,10.0314963 L101.270079,10.0314963 L101.270079,14.2267556 C101.270079,15.5334222 100.281503,16.4134222 98.9899271,16.4134222" id="Fill-3" fill="#1E1412"></path>
                <polygon id="Fill-5" fill="#1E1412" points="106.521079 16.3600296 103.590685 11.9068444 103.590685 16.3600296 102.628684 16.3600296 102.628684 10.031437 103.510518 10.031437 106.440912 14.4755852 106.440912 10.031437 107.402765 10.031437 107.402765 16.3600296"></polygon>
                <polygon id="Fill-7" fill="#1E1412" points="108.823618 16.3600296 108.823618 10.031437 109.785471 10.031437 109.785471 15.4979556 112.840717 15.4979556 112.840717 16.3600296"></polygon>
                <path d="M116.191675,11.4624593 L115.202951,14.2712 L117.153528,14.2712 L116.191675,11.4624593 Z M117.857363,16.3600889 L117.420751,15.0889778 L114.917913,15.0889778 L114.48145,16.3600889 L113.457245,16.3600889 L115.781933,10.0314963 L116.556879,10.0314963 L118.881568,16.3600889 L117.857363,16.3600889 Z" id="Fill-9" fill="#1E1412"></path>
                <polygon id="Fill-11" fill="#1E1412" points="123.653378 16.3600296 120.722985 11.9068444 120.722985 16.3600296 119.760983 16.3600296 119.760983 10.031437 120.642818 10.031437 123.573212 14.4755852 123.573212 10.031437 124.535065 10.031437 124.535065 16.3600296"></polygon>
                <path d="M129.162382,11.3202519 C128.895159,11.0269185 128.539011,10.8935852 128.084584,10.8935852 L126.91786,10.8935852 L126.91786,15.4978815 L128.084584,15.4978815 C128.539011,15.4978815 128.895159,15.3645481 129.162382,15.0712148 C129.491957,14.7067704 129.500864,14.0223259 129.500864,13.1512148 C129.500864,12.2801037 129.491957,11.6846963 129.162382,11.3202519 M129.821531,15.7645481 C129.420697,16.1644 128.841715,16.3601037 128.182565,16.3601037 L125.955858,16.3601037 L125.955858,10.0315111 L128.182565,10.0315111 C128.841715,10.0315111 129.420697,10.2269185 129.821531,10.6269185 C130.507403,11.3112148 130.462866,12.2358074 130.462866,13.1512148 C130.462866,14.0667704 130.507403,15.0801037 129.821531,15.7645481" id="Fill-13" fill="#1E1412"></path>
                <path d="M133.440528,16.4134222 C132.487582,16.4134222 131.801711,16.1912 131.196006,15.5777185 L131.83734,14.9467556 C132.300378,15.4089778 132.808101,15.5512 133.458343,15.5512 C134.286733,15.5512 134.767734,15.1956444 134.767734,14.5824593 C134.767734,14.3067556 134.687567,14.0757926 134.518326,13.9245333 C134.357993,13.7735704 134.197808,13.7113481 133.823547,13.6578667 L133.075324,13.5513481 C132.558842,13.4800889 132.1491,13.3023111 131.872822,13.0446815 C131.56121,12.7512 131.409784,12.3513481 131.409784,11.8357926 C131.409784,10.7335704 132.211452,9.97816296 133.529751,9.97816296 C134.3669,9.97816296 134.95479,10.1913481 135.497994,10.6980148 L134.883531,11.3024593 C134.491604,10.9291259 134.037474,10.8135704 133.50288,10.8135704 C132.754805,10.8135704 132.345064,11.240237 132.345064,11.800237 C132.345064,12.0313481 132.416323,12.2357926 132.585416,12.3867556 C132.745749,12.5289778 133.004213,12.6357926 133.298009,12.680237 L134.019511,12.7869037 C134.607401,12.8757926 134.936975,13.0178667 135.204198,13.2578667 C135.551587,13.5600889 135.72068,14.0135704 135.72068,14.5556444 C135.72068,15.7200889 134.767734,16.4134222 133.440528,16.4134222" id="Fill-15" fill="#1E1412"></path>
                <polyline id="Fill-17" fill="#D88212" points="39.4478285 35.8409926 43.2762389 34.3572889 38.5545625 32.3189185"></polyline>
                <polygon id="Fill-19" fill="#EF903A" points="41.7212404 26.3812741 38.5546515 32.3189037 43.2763279 34.3572741"></polygon>
                <polygon id="Fill-21" fill="#F7AA2F" points="41.7212404 26.3812741 51.4868934 28.1249778 52.1081862 20.3052741"></polygon>
                <polygon id="Fill-23" fill="#F49E2C" points="52.1081416 20.3053333 58.5287605 26.7456296 51.4868489 28.125037"></polygon>
                <polygon id="Fill-25" fill="#EF9818" points="52.1081416 20.3053333 44.2474894 15.0355556 41.7211958 26.3813333"></polygon>
                <polygon id="Fill-27" fill="#7A4205" points="38.8498138 39.1314222 45.4892584 39.6468296 43.2763576 34.3573481 39.4477988 35.8410519"></polygon>
                <polygon id="Fill-29" fill="#FCBE45" points="52.1081416 20.3053333 58.5287605 19.3795556 50.0499331 14.472"></polygon>
                <polygon id="Fill-31" fill="#FCD37A" points="58.5287456 19.3795556 58.5287456 26.7456296 52.1081268 20.3053333"></polygon>
                <polygon id="Fill-33" fill="#D6760D" points="51.4868489 28.125037 41.7211958 26.3813333 42.8221533 32.0282963"></polygon>
                <polygon id="Fill-35" fill="#AA6007" points="45.3507034 30.8892296 43.2763131 34.3573778 42.822183 32.0281926"></polygon>
                <polygon id="Fill-37" fill="#0B7DAF" points="21.3757068 31.8377926 26.6285625 29.2047556 18.3424324 27.8229778"></polygon>
                <polygon id="Fill-39" fill="#023978" points="30.3343918 38.5979111 35.7174444 38.5979111 32.6068239 34.137763 29.3170157 36.1469481"></polygon>
                <polygon id="Fill-41" fill="#0D3C63" points="55.975418 32.5256 57.5838017 28.884563 58.5287308 26.7456 51.4868192 28.1250074"></polygon>
                <polygon id="Fill-43" fill="#0063BA" points="52.0206559 37.5759704 51.4868043 28.1250074 55.9754032 32.5256"></polygon>
                <polygon id="Fill-45" fill="#0B7FCE" points="48.729853 36.7379704 50.0946187 32.9852296 51.745758 32.7096741"></polygon>
                <polygon id="Fill-47" fill="#023978" points="45.9010485 36.0684889 49.2100077 32.0281926 50.0945148 32.9852296 48.7298976 36.7379704"></polygon>
                <polygon id="Fill-49" fill="#025A96" points="52.0206559 37.5759704 48.7298085 36.7378963 51.7458619 32.7097481"></polygon>
                <polygon id="Fill-51" fill="#4AA5D3" points="58.5287456 19.3795556 58.5287456 26.7456296 65.2143603 23.6613333"></polygon>
                <polygon id="Fill-53" fill="#085E9E" points="77.7539184 29.6873333 82.3936465 31.4542963 75.999453 31.5827407"></polygon>
                <polygon id="Fill-55" fill="#045A8E" points="75.4997763 27.6013778 77.7290073 26.4874519 72.7628222 25.068637"></polygon>
                <polygon id="Fill-57" fill="#1A71C0" points="71.806833 29.6873333 75.9994085 31.5827407 77.7538739 29.6873333 75.4998505 27.6014074 72.7628964 25.0686667"></polygon>
                <polygon id="Fill-59" fill="#044C70" points="58.5287456 26.7455852 65.2143603 23.6612889 63.3136647 27.003363"></polygon>
                <polygon id="Fill-61" fill="#0063BA" points="65.2143306 23.6612741 61.7880904 3.73031111 58.5287159 19.3794963"></polygon>
                <polygon id="Fill-63" fill="#1D99DD" points="65.2143306 23.6612741 71.4492297 17.3723852 61.7880904 3.73031111"></polygon>
                <polygon id="Fill-65" fill="#0B69AF" points="65.2143306 23.6612741 72.7629261 25.0686815 72.970766 21.3712 71.4492297 17.3723852"></polygon>
                <polygon id="Fill-67" fill="#1A71C0" points="65.2143306 23.6612741 60.1523907 31.514163 61.8715233 34.3572741 67.0713798 28.3257185"></polygon>
                <polygon id="Fill-69" fill="#2CA4E4" points="70.2513149 32.2681778 67.071365 28.3258074 61.8715084 34.357363"></polygon>
                <polygon id="Fill-71" fill="#2CA4E4" points="65.2143306 23.6612741 72.7629261 25.0686815 67.0713798 28.3257185"></polygon>
                <polygon id="Fill-73" fill="#60A0DF" points="70.2513149 32.2681778 71.8068479 29.6872889 67.071365 28.3258074"></polygon>
                <polygon id="Fill-75" fill="#9CC9FA" points="72.7628667 25.0686667 67.0713204 28.3257037 71.8068033 29.6873333"></polygon>
                <polygon id="Fill-77" fill="#F21414" points="47.2966784 1.9805037 61.7881646 3.73028148 52.0808552 5.92592593e-05"></polygon>
                <polygon id="Fill-79" fill="#1D99DD" points="61.7881349 3.73025185 58.5287605 19.3795852 50.0499331 14.4720296"></polygon>
                <polygon id="Fill-81" fill="#C10C0C" points="47.2966784 1.9805037 50.0499628 14.4720593 61.7881646 3.73028148"></polygon>
                <polygon id="Fill-83" fill="#B71111" points="20.441036 10.0704148 17.3115615 13.1170815 12.9209443 14.4978222 12.8006941 13.1920444"></polygon>
                <polygon id="Fill-85" fill="#C90505" points="9.14980867 13.1920593 8.24644754 14.4976889 12.9209146 14.4976889 12.8006644 13.1920593"></polygon>
                <polygon id="Fill-87" fill="#A50404" points="8.24647723 14.497763 5.19434879 9.21761481 7.20252727 9.22828148 9.14983837 13.1921333"></polygon>
                <polygon id="Fill-89" fill="#C90505" points="5.19436364 9.21768889 14.3459983 9.26583704 12.5504103 7.6690963 7.25865888 8.1048"></polygon>
                <polygon id="Fill-91" fill="#991111" points="18.3424027 27.8229778 11.5871616 19.6497926 9.06205571 28.7343852"></polygon>
                <polygon id="Fill-93" fill="#7F0808" points="11.6184415 19.6497778 6.50558082 27.3339259 9.09333561 28.7343704"></polygon>
                <polygon id="Fill-95" fill="#720000" points="0 37.056237 1.28756797 39.9999407 5.89389324 39.9999407 3.55940617 35.7457185"></polygon>
                <polygon id="Fill-97" fill="#991111" points="0 37.0704593 3.55940617 35.7599407 5.89389324 33.2503111 6.50568474 27.3338667"></polygon>
                <polygon id="Fill-99" fill="#9E2533" points="20.441036 10.0704148 17.3115615 13.1170815 15.3875581 16.7440444 23.3484188 8.46745185"></polygon>
                <polygon id="Fill-101" fill="#DB0D03" points="23.3483892 8.46748148 25.261852 14.9852593 15.3875284 16.7439259"></polygon>
                <polygon id="Fill-103" fill="#AD0707" points="15.3875878 16.744 25.261763 25.3322963 28.6295111 21.5626667 25.261763 14.9853333"></polygon>
                <polygon id="Fill-105" fill="#DB2C2C" points="11.5871319 19.6497778 15.3876324 16.744 18.342373 27.822963"></polygon>
                <polygon id="Fill-107" fill="#C62626" points="15.3875878 16.744 18.3423284 27.822963 25.261763 25.3322963"></polygon>
                <polygon id="Fill-109" fill="#025A96" points="18.3424027 27.8229778 25.2618372 25.3323111 26.6285328 29.2047556"></polygon>
                <polygon id="Fill-111" fill="#0D3C63" points="26.6285476 29.2047704 35.6493917 24.0123259 28.6296002 21.5626963 25.261852 25.3323259"></polygon>
                <polygon id="Fill-113" fill="#CA0000" points="23.3483892 8.46748148 30.4556219 9.25414815 25.261852 14.9852593"></polygon>
                <polygon id="Fill-115" fill="#DB0D03" points="28.6295705 21.562637 30.4555922 9.25419259 25.2618224 14.9853037"></polygon>
                <polygon id="Fill-117" fill="#B20808" points="30.4555773 9.25422222 35.9429952 15.8422222 28.6295556 21.5626667"></polygon>
                <polygon id="Fill-119" fill="#D30000" points="37.3504125 7.66908148 50.0498737 14.4720444 47.2967378 1.98048889"></polygon>
                <polygon id="Fill-121" fill="#C10C0C" points="35.9429655 15.8421778 30.4555476 9.25417778 37.3503383 7.66914074 50.049948 14.4719556"></polygon>
                <polygon id="Fill-123" fill="#E71E00" points="6.5056402 27.3339259 5.89384871 33.2503704 9.093395 28.7343704"></polygon>
                <polygon id="Fill-125" fill="#025A96" points="21.3757068 31.8377926 29.3169711 36.1468296 26.6285625 29.2047556"></polygon>
                <polygon id="Fill-127" fill="#0B7FCE" points="26.6285476 29.2047704 29.3169563 36.1468444 32.6067645 34.1378074"></polygon>
                <polygon id="Fill-129" fill="#D31111" points="35.9429655 15.8421778 28.6295259 21.5626222 35.6493174 24.0124"></polygon>
                <polygon id="Fill-131" fill="#E50000" points="35.649362 24.0123259 44.2475488 15.0355852 35.94301 15.8421037"></polygon>
                <polygon id="Fill-133" fill="#E06F1E" points="44.2475636 15.0355704 35.6493768 24.0123111 41.7212701 26.3812"></polygon>
                <polygon id="Fill-135" fill="#F7AA2F" points="44.2475636 15.0355704 52.1082158 20.3053481 50.0500073 14.4720148"></polygon>
                <path d="M101.134731,24.691363 L99.9696397,23.4602519 C101.157148,22.5486963 102.231383,21.6595111 103.190861,20.7929926 L104.424539,21.9555111 C103.098669,23.0958074 102.002165,24.0075111 101.134731,24.691363 L101.134731,24.691363 Z M95.4461535,32.1463259 L99.3528007,32.1463259 L99.3528007,29.7525481 L95.4461535,29.7525481 L95.4461535,32.1463259 Z M93.7328107,33.7195111 L101.066292,33.7195111 L101.066292,28.2479556 L93.7328107,28.2479556 L93.7328107,33.7195111 Z M93.3901718,24.6229185 C92.3845238,23.665437 91.3564587,22.7762519 90.3059766,21.9555111 L91.5396547,20.7929926 C92.5901368,21.6137333 93.6642235,22.4802519 94.7608757,23.3919556 L93.3901718,24.6229185 Z M90.1003636,36.4550667 L90.1003636,24.9649926 L96.4742185,24.9649926 L96.4742185,20.3141778 L98.3247356,20.3141778 L98.3247356,24.9649926 L104.69859,24.9649926 L104.69859,34.1297333 C104.789743,35.5885481 104.0819,36.3183259 102.574022,36.3183259 L101.477369,36.3183259 C100.883096,36.3632148 100.425848,36.3866222 100.106666,36.3866222 C99.9696397,35.8396593 99.8326138,35.2688444 99.6954395,34.6768444 L101.888595,34.6768444 C102.619004,34.6768444 102.961643,34.3808444 102.916661,33.7876593 L102.916661,26.5380296 L91.8822936,26.5380296 L91.8822936,36.4550667 L90.1003636,36.4550667 Z" id="Fill-137" fill="#000000"></path>
                <path d="M123.724415,35.0872 C123.267167,34.1757926 122.718916,33.1037926 122.079511,31.8728296 L123.450215,31.3255704 C123.632372,31.6451259 123.930028,32.1698667 124.341254,32.8987556 C124.706459,33.6285333 124.98051,34.1757926 125.163706,34.540237 L123.724415,35.0872 Z M121.051446,28.9317926 L122.69635,28.9317926 L122.69635,26.5380148 L121.051446,26.5380148 L121.051446,28.9317926 Z M118.172864,28.9317926 L119.749181,28.9317926 L119.749181,26.5380148 L118.172864,26.5380148 L118.172864,28.9317926 Z M119.13249,33.3774222 C118.995464,33.1498667 118.789851,32.7854222 118.515651,32.2830519 C118.241451,31.7818667 118.035838,31.3940148 117.898812,31.1205333 L119.200929,30.5732741 C119.657286,31.3032 120.091968,32.0331259 120.503194,32.7618667 L119.13249,33.3774222 Z M117.693199,36.3184593 C116.322495,36.3632 115.659635,35.7476444 115.705656,34.4717926 L115.705656,31.3940148 L117.281973,31.3940148 L117.281973,33.7877926 C117.235951,34.5175704 117.601007,34.8586074 118.378625,34.8135704 L119.612155,34.8135704 C120.297581,34.8586074 120.685203,34.6320889 120.777246,34.1297185 C120.868398,33.8560889 120.959403,33.4692741 121.051446,32.9670519 L121.051446,32.7618667 C121.233603,32.8077926 121.485238,32.8987556 121.805459,33.0353481 C122.124494,33.172237 122.376128,33.2640889 122.559324,33.3089778 C122.467132,33.902163 122.330107,34.4269037 122.148098,34.8820148 C121.873898,35.8845333 121.14245,36.3632 119.954942,36.3184593 L117.693199,36.3184593 Z M115.225843,28.9317926 L116.870747,28.9317926 L116.870747,26.5380148 L115.225843,26.5380148 L115.225843,28.9317926 Z M113.5125,23.5969778 L113.5125,22.0923852 L118.104425,22.0923852 L118.104425,20.3826074 L119.817916,20.3826074 L119.817916,22.0923852 L124.683893,22.0923852 L124.683893,23.5969778 L119.817916,23.5969778 L119.817916,25.1018667 L124.20408,25.1018667 L124.20408,30.3680889 L113.718113,30.3680889 L113.718113,25.1018667 L118.104425,25.1018667 L118.104425,23.5969778 L113.5125,23.5969778 Z M113.855139,35.4292741 C113.397891,35.1556444 112.918078,34.9504593 112.415848,34.8135704 C112.735031,34.2666074 113.101274,33.4008296 113.5125,32.2146074 C113.649526,31.896237 113.74053,31.6674963 113.7867,31.5307556 L115.157256,32.0095704 C114.883204,32.922163 114.448373,34.0612741 113.855139,35.4292741 L113.855139,35.4292741 Z M109.468827,25.9909037 C109.194627,25.2160889 108.942992,24.6464593 108.714814,24.2811259 C109.90247,23.2786074 111.021688,21.9792 112.073209,20.3826074 L113.443913,21.4085333 C112.392243,23.0498667 111.06771,24.5780148 109.468827,25.9909037 L109.468827,25.9909037 Z M110.428305,36.660237 L110.428305,30.1629037 C109.925036,30.6651259 109.40024,31.1888296 108.851988,31.7359407 C108.759945,31.0978667 108.600353,30.4824593 108.372175,29.8892741 C109.742879,28.5673481 110.976557,26.9258667 112.073209,24.9649778 L113.5125,25.854163 C113.420308,25.9460148 113.306887,26.1051259 113.169713,26.3328296 C112.712465,27.1535704 112.323805,27.7466074 112.004622,28.1110519 L112.004622,36.660237 L110.428305,36.660237 Z" id="Fill-139" fill="#000000"></path>
                <path d="M141.790584,23.2551704 C141.105306,22.6170963 140.396275,22.0015407 139.666015,21.4085037 L140.899693,20.5193185 C141.676123,21.0665778 142.407423,21.6594667 143.092849,22.2975407 L141.790584,23.2551704 Z M141.790584,36.5236148 C140.601888,36.5683556 139.597428,35.7476148 138.774976,34.0612444 C137.952524,34.8362074 136.947024,35.6568 135.759368,36.5236148 C135.439146,36.1132444 135.02792,35.6568 134.52569,35.1556148 C135.941525,34.2440593 137.130072,33.2642074 138.089698,32.2147259 C137.541298,30.3455407 137.198659,27.9293926 137.061633,24.9649481 L131.030417,24.9649481 L131.030417,27.221837 L135.690929,27.221837 C135.690929,28.1794667 135.644907,29.5708741 135.553755,31.3941333 L135.553755,31.8728 C135.553755,33.6061333 134.776285,34.471763 133.223573,34.471763 C132.812347,34.5175407 132.24049,34.5402074 131.510082,34.5402074 C131.510082,34.3125037 131.46406,34.0165037 131.373056,33.6510222 C131.327034,33.2405037 131.281013,32.9445037 131.23603,32.761837 L132.675321,32.761837 C133.451603,32.807763 133.840412,32.4434667 133.840412,31.6674667 C133.885246,31.3031704 133.908851,30.8243556 133.908851,30.2313185 C133.953833,29.5932444 133.977438,29.1145778 133.977438,28.7950222 L131.030417,28.7950222 C131.121421,31.9410963 130.526999,34.5859852 129.248487,36.7286519 C129.156295,36.6828741 129.019269,36.5919111 128.837261,36.4551704 C128.288861,36.0448 127.9002,35.7711704 127.672022,35.6344296 C128.311426,34.5402074 128.745069,33.491763 128.974287,32.4882074 C129.156295,31.5307259 129.248487,30.0720593 129.248487,28.1110222 L129.248487,23.3234667 L136.993046,23.3234667 C136.947024,22.6855407 136.924459,21.6594667 136.924459,20.245837 L138.706537,20.245837 C138.706537,21.6136889 138.728954,22.6396148 138.774976,23.3234667 L144.189353,23.3234667 L144.189353,24.9649481 L138.843563,24.9649481 C138.980589,27.2902815 139.208619,29.1369481 139.528989,30.5049481 C140.168245,29.5474667 140.92211,28.0886519 141.790584,26.127763 L143.435488,26.8116148 C142.292814,29.319763 141.19631,31.2123556 140.14568,32.4882074 C140.190662,32.5342815 140.214267,32.6027259 140.214267,32.6935407 C140.716497,34.0165037 141.218727,34.6769481 141.722145,34.6769481 C142.041179,34.6769481 142.270397,34.4268741 142.407423,33.9246519 C142.635453,33.0590222 142.772627,32.2830222 142.818649,31.5991704 C143.092849,31.7359111 143.48047,31.8962074 143.98374,32.0779852 C144.165897,32.1239111 144.280357,32.1464296 144.326527,32.1464296 C144.189353,33.3773926 144.028722,34.2665778 143.846714,34.8136889 C143.48047,35.9529481 142.795193,36.5236148 141.790584,36.5236148 L141.790584,36.5236148 Z" id="Fill-141" fill="#000000"></path>
                <path d="M153.757098,26.196 C153.482898,25.6488889 153.185241,25.1251852 152.866207,24.622963 C155.835645,23.5287407 158.486049,22.2976296 160.816379,20.9296296 L161.98147,22.4343704 C159.468092,23.8022222 156.726684,25.0568889 153.757098,26.196 M162.324257,35.9764444 C158.394005,34.6084444 155.835645,32.2146667 154.647988,28.794963 L151.769555,28.794963 L151.769555,34.1297778 C153.277433,33.4459259 154.601967,32.8986667 155.744641,32.4882963 C155.744641,32.717037 155.767206,33.058963 155.813228,33.5140741 L155.813228,34.4032593 C154.213306,34.9505185 152.911041,35.4291852 151.906581,35.8397037 C151.312307,36.1131852 150.786472,36.3866667 150.330264,36.6602963 L149.23376,35.0872593 C149.644986,34.7217778 149.850599,34.2216296 149.850599,33.5825185 L149.850599,28.794963 L147.246217,28.794963 L147.246217,27.0167407 L149.850599,27.0167407 L149.850599,20.3826667 L151.769555,20.3826667 L151.769555,27.0167407 L163.352174,27.0167407 L163.352174,28.794963 L156.498506,28.794963 C157.549136,31.3940741 159.879318,33.2405926 163.489348,34.334963 C163.443326,34.3808889 163.374739,34.4493333 163.283735,34.5401481 C163.054517,34.8136296 162.735483,35.2924444 162.324257,35.9764444" id="Fill-143" fill="#000000"></path>
                <g id="Group-147" transform="translate(168.647206, 23.703704)">
                    <mask id="mask-2" fill="white">
                        <use xlink:href="#path-1"></use>
                    </mask>
                    <g id="Clip-146"></g>
                    <polygon id="Fill-145" fill="#000000" mask="url(#mask-2)" points="9.29360417 3.3521037 5.54625138 3.3521037 5.54625138 0.0131407407 3.83676847 0.0131407407 3.83676847 3.3521037 0.0892672227 3.3521037 0.0892672227 5.05802963 3.83676847 5.05802963 3.83676847 9.19832593 5.54625138 9.19832593 5.54625138 5.05802963 9.29360417 5.05802963"></polygon>
                </g>
            </g>
        </g>
    </g>
</svg>